# xmcd
#
# Track frame offsets:
#	150
#	20716
#	33229
#	47088
#	58791
#	70796
#	85140
#	98831
#	111632
#	125574
#	140102
#	157361
#
# Disc length: 2370 seconds
#
# Revision: 1
# Processed by: cddbd v1.5.1PL0 Copyright (c) Steve Scherf et al.
# Submitted via: CDex 1.50Beta5
#
DISCID=b409400c
DTITLE=サウンドトラック - 星刻のかなた PRE サウンドトラック
DYEAR=1900
DGENRE=
TTITLE0=Love Song
TTITLE1=私だけの宝物
TTITLE2=ときめきは夢の中
TTITLE3=太陽に向って
TTITLE4=ふたつの想い
TTITLE5=旅人の涙
TTITLE6=この道の先に・・・
TTITLE7=新しい風に吹かれて
TTITLE8=Be Happy!
TTITLE9=吐息
TTITLE10=幸せの空間
TTITLE11=Love Song カラオケ
EXTD=
EXTT0=
EXTT1=
EXTT2=
EXTT3=
EXTT4=
EXTT5=
EXTT6=
EXTT7=
EXTT8=
EXTT9=
EXTT10=
EXTT11=
PLAYORDER=
